<?xml version="1.0" encoding="UTF-8"?>
<!-- Svg Vector Icons : http://www.onlinewebfonts.com/icon -->
<!DOCTYPE svg PUBLIC "-//W3C//DTD SVG 1.1//EN" "http://www.w3.org/Graphics/SVG/1.1/DTD/svg11.dtd">
<svg version="1.1" xmlns="http://www.w3.org/2000/svg" xmlns:xlink="http://www.w3.org/1999/xlink" x="0px" y="0px" viewBox="0 0 256 256" enable-background="new 0 0 256 256" xml:space="preserve">
<metadata> Svg Vector Icons : http://www.onlinewebfonts.com/icon </metadata>
<g><g><g><path fill="#000000" d="M69,39.7L10.2,69.2H128h117.8L187,39.7c-32.3-16.2-58.9-29.5-59-29.5S101.3,23.5,69,39.7z M155.3,43.4c14.4,6.4,26.1,11.7,26,11.8c-0.1,0.1-12.1-2.5-26.7-5.8L128,43.4l-26.6,5.9c-14.7,3.2-26.7,5.9-26.8,5.8c-0.3-0.3,52.8-23.7,53.6-23.6C128.7,31.7,141,37,155.3,43.4z"/><path fill="#000000" d="M10,86v8.5h118h118V86v-8.5H128H10V86z"/><path fill="#000000" d="M22.6,103.5c-0.1,0.3-0.1,3.2-0.1,6.4l0.1,5.7l4.3,0.1l4.2,0.1v46.3v46.3l12.6-0.1l12.5-0.1l0.1-46.2l0.1-46.2l4.1-0.1l4-0.1l0.1-6.4l0.1-6.3h-21C27,102.9,22.8,103,22.6,103.5z"/><path fill="#000000" d="M77.4,109.2l0.1,6.4l4.3,0.1l4.2,0.1v46.3v46.3h12.4h12.4v-46.3v-46.3l4.3-0.1l4.2-0.1l0.1-6.4l0.1-6.3H98.5H77.3L77.4,109.2z"/><path fill="#000000" d="M136.4,109.2l0.1,6.4l4.3,0.1l4.2,0.1v46.3v46.3h12.4h12.4v-46.3v-46.3l4.3-0.1l4.2-0.1l0.1-6.4l0.1-6.3h-21.2h-21.3L136.4,109.2z"/><path fill="#000000" d="M191.2,109.2l0.1,6.4l4,0.1l4.1,0.1l0.1,46.2l0.1,46.2l12.6,0.1l12.5,0.1v-46.3v-46.3l4.3-0.1l4.2-0.1v-6.2v-6.2l-21.1-0.1l-21.1-0.1L191.2,109.2z"/><path fill="#000000" d="M18.3,216.7v4.1H128h109.7v-4.1v-4.1H128H18.3V216.7z"/><path fill="#000000" d="M10,237.5v8.3h118h118v-8.3v-8.3H128H10V237.5z"/></g></g></g>
</svg>